<?xml version="1.0" standalone="no"?><!DOCTYPE svg PUBLIC "-//W3C//DTD SVG 1.1//EN" "http://www.w3.org/Graphics/SVG/1.1/DTD/svg11.dtd"><svg t="1483677955586" class="icon" style="" viewBox="0 0 1024 1024" version="1.1" xmlns="http://www.w3.org/2000/svg" p-id="2800" xmlns:xlink="http://www.w3.org/1999/xlink" width="16" height="16"><defs><style type="text/css"></style></defs><path d="M760.9344 777.5232c-88.4736 0-164.5568-9.9328-229.9904-28.9792-65.3312-19.8656-119.0912-51.3024-161.28-93.4912-42.1888-42.1888-73.6256-95.9488-93.4912-161.28s-28.9792-141.4144-28.9792-229.9904c0-9.1136 7.4752-16.5888 16.5888-16.5888 0.8192 0 0.8192 0 1.6384 0 54.5792 0 104.2432 3.2768 148.8896 11.5712 42.1888 6.656 81.92 17.408 116.6336 31.4368 28.9792-14.848 62.0544-25.6 100.0448-33.8944 39.7312-8.2944 84.3776-11.5712 134.0416-11.5712 9.1136 0 16.5888 7.4752 16.5888 16.5888 0 49.664-4.096 94.3104-11.5712 134.0416-7.4752 37.1712-19.0464 70.3488-33.8944 100.0448 14.0288 34.7136 24.7808 73.6256 31.4368 116.6336 7.4752 45.4656 11.5712 95.9488 11.5712 149.7088C778.3424 770.8672 770.8672 778.3424 760.9344 777.5232L760.9344 777.5232zM541.7984 716.288c57.0368 17.408 124.1088 26.4192 202.6496 28.16-0.8192-47.104-4.096-88.4736-10.752-127.3856-6.656-43.008-17.408-81.92-32.256-115.8144-2.4576-4.9152-2.4576-9.9328 0.8192-14.848 15.6672-28.16 26.4192-60.416 33.8944-96.768 6.656-33.0752 10.752-69.5296 11.5712-109.9776-40.5504 0.8192-77.7216 4.096-109.9776 11.5712-37.1712 7.4752-69.5296 19.0464-96.768 33.8944l0 0c-4.096 2.4576-9.9328 2.4576-14.848 0.8192-33.8944-14.848-72.8064-24.7808-115.8144-32.256-38.912-6.656-81.92-9.9328-127.3856-10.752 1.6384 78.5408 10.752 145.6128 28.16 202.6496 19.0464 60.416 47.104 109.1584 85.1968 147.2512C433.4592 670.0032 482.2016 698.0608 541.7984 716.288L541.7984 716.288z" p-id="2801" fill="#8a8a8a"></path></svg>